<?xml version="1.0" encoding="UTF-8"?>
<svg id="Capa_1" data-name="Capa 1" xmlns="http://www.w3.org/2000/svg" viewBox="0 0 1751.91 892.04">
  <defs>
    <style>
      .cls-1 {
        stroke-width: 0px;
      }
    </style>
  </defs>
  <path class="cls-1" d="m923.25,718.88c-18.74-1.3-35.53-.12-52.26,1.1-38.37,2.8-76.22,9.04-113.52,18.52-32.43,8.24-64.1,18.92-95.66,29.94-8.44,2.95-16.93,5.69-25.68,7.52-2.62.55-5.34,1-8,.94-14.28-.32-19.77-7.37-15.89-20.98,5.6-19.61,15.71-37.03,27.54-53.44,16.28-22.58,34.35-43.76,52.39-64.94,1.61-1.89,3.35-3.73,5.28-5.26,2.63-2.08,5.25-.59,7.44.93,2.78,1.93.93,4.13-.41,5.87-6.31,8.24-12.68,16.44-19.13,24.57-10.39,13.11-18.75,27.4-24.72,43.03-1.47,3.85-2.47,7.92-3.31,11.96-.98,4.72.4,7.11,5.93,5.74,6.87-1.7,13.59-3.82,20.21-6.27,49.11-18.2,98.66-34.9,150.42-44.1,26.17-4.65,52.46-8.33,79.04-9.57,3.44-.16,6.85-.82,11.3-1.37-6.33-6-12.23-10.84-17.25-16.47-19.25-21.58-34.94-45.89-52.13-69.04-18.44-24.83-37.22-49.4-56.64-73.48-3.15-3.9-6.94-6.34-11.61-7.89-25.82-8.6-52.07-15.62-78.7-21.21-1.55-.33-3.56-1.3-4.51.49-.91,1.72,1.04,2.96,1.94,4.25,25.47,36.42,52.14,71.93,80.42,106.22,11.95,14.49,21.64,30.41,30.08,47.16,1.81,3.59,1.77,6.29-.97,9.54-9.23,10.95-18.18,22.13-27.16,33.28-6.5,8.08-7.52,8.58-16.31,3.02-14.96-9.47-28.74-20.41-40.46-33.83-16-18.31-30.58-37.72-45.06-57.23-1.2-1.62-2.06-3.59-4.55-4.75-1.47,9.73-3.1,19.23-6.77,28.26-5.46,13.44-13.42,25.24-22.77,36.2-14.27,16.72-26.76,34.97-42.82,50.15-19.18,18.12-42.61,27.78-68,33.09-55.01,11.5-109.48,6.34-163.53-6.34-45.74-10.73-89.67-26.24-129.46-51.85-21.01-13.52-39.19-29.96-51.92-51.89-16.64-28.67-14.56-55.13,6.53-80.65,12.17-14.72,24.12-29.61,36.36-44.27,2.98-3.57,2.4-4.91-1.88-6.18-39.43-11.64-79.08-22.48-118.96-32.44-1.34-.33-2.77-1.05-4.68.04,2.87,4.53,5.68,9.04,8.57,13.5,33.34,51.37,23.83,103.4-8.77,145.86-8.34,10.86-17.31,21.24-26.03,31.81-1.32,1.6-2.81,3.06-4.32,4.48-3.07,2.91-6.25,1.93-8.96-.36-2.83-2.38-.33-4.62,1.03-6.45,15.81-21.33,21.68-45.42,19.93-71.59-1.24-18.54-8.89-34.94-18.29-50.47-18.75-30.99-42.39-57.86-70.19-81.08-8.21-6.86-8.32-8.1-1.44-16.43,10.44-12.64,21.07-25.14,31.06-38.13,4.68-6.09,10.44-7.74,17.39-7.34,27.02,1.53,53.61,6.09,79.97,11.96,68.74,15.29,136.96,32.54,203.96,54.36,1.33.43,2.73.68,4.59,1.13-.12-3.41-2.38-5.16-3.87-7.14-18.79-24.82-39.72-47.41-67.02-63.22-11.67-6.76-24.21-9.72-37.66-8.41-8.32.81-15.75,3.63-21.22,10.38-3.53,4.35-7.16,8.62-10.69,12.97-2.27,2.8-4.66,1.76-7.23.53-2.95-1.4-3.11-3.59-2.06-6.22,1.56-3.9,3.9-7.34,6.51-10.57,10.19-12.59,20.25-25.28,30.74-37.61,10.87-12.77,24.15-21.51,41.53-22.4,5.47-.28,4.83-2.67,2.68-6.34-15.64-26.68-31.42-53.28-46.66-80.19-16.38-28.91-31.6-58.41-44.53-89.07-2.13-5.05-1.74-8.76,1.84-12.98,11-12.98,21.75-26.18,32.39-39.46,3.18-3.97,6.41-4.5,10.8-2.33,9.18,4.53,15.44,12.54,22.7,19.23,42.76,39.38,87.29,76.74,130.99,115.05,32.62,28.6,65.26,57.17,97.81,85.83,22.72,20.01,44.98,40.52,67.87,60.85-4.42-8.21-8.86-16.41-13.25-24.64-25.8-48.37-50.54-97.2-69.75-148.71-6.06-16.26-7.08-29.76,7.08-42.33,6.9-6.13,12.23-14.07,18-21.41,2.36-2.99,4.64-3.2,8.08-2.21,19.2,5.5,34.91,17.29,50.87,28.42,44.01,30.68,84.91,65.24,124.91,100.9.9.8,1.84,1.54,3.63,1.68-2.6-4.82-5.23-9.63-7.81-14.46-5.18-9.7-10.13-19.54-15.6-29.07-2.59-4.51-2.17-7.88,1.1-11.74,7.92-9.34,15.57-18.9,23.28-28.41,1.12-1.38,3.51-2.54,2.66-4.52-.77-1.82-3.23-1.46-5.06-1.69-26.81-3.37-53.39-7.89-79.23-16.04-14.1-4.45-27.93-9.58-39.99-18.39-12.88-9.41-14.01-18.17-4.12-30.43,12.11-15.03,24.24-30.05,36.55-44.92,11.11-13.41,26.36-20.63,42.01-27,43.41-17.66,88.6-27.72,135.26-31.98,17.91-1.64,34.74.91,51.07,7.87,7.28,3.1,7.47,4.7,2.47,10.76-3.78,4.58-7.43,9.25-11.23,14,2.83,2.06,5.38,1.22,7.75,1.2,34.27-.32,68.51-.24,102.5,5.03,11.74,1.82,23.26,4.43,33.98,9.77,13.86,6.91,15.61,14.43,5.95,26.47-10.91,13.6-22.46,26.71-32.95,40.61-11.05,14.64-26.49,22.37-42.66,29.08-21.72,9.02-44.2,15.67-67.27,20.31-1.81.36-3.59.9-6.32,1.59,48.84,57.33,97.27,114.18,146.19,171.6,1.1-3.11-.53-4.93-1.3-6.78-11.95-28.67-21.46-58.03-24.43-89.13-2.76-28.96-.4-57.44,11.92-84.1,7.57-16.38,19.09-30.59,28.95-45.7,2.33-3.57,5.45-2.1,8.35-1.03,3.24,1.19,2.77,3.69,1.83,6.2-14.44,38.78-10.85,77.55.56,116.14,10.96,37.07,28.45,71.24,47.64,104.6.6,1.04,1.43,1.94,2.86,3.85,2.94-8.28,3.76-15.99,4.2-23.69,2.08-36.71-7.05-71.19-21.24-104.61-6.34-14.93-13.61-29.4-22.7-42.86-2.28-3.38-1.79-5.97.25-9.05,7.56-11.42,14.96-22.96,22.49-34.4,3.75-5.7,7.31-6.37,12.77-2.25,2.99,2.25,5.23,5.27,7.37,8.37,14.13,20.56,24.32,43.43,38.41,64.06,23.19,33.96,46.43,67.85,73.09,99.22,10.35,12.18,21.15,24.02,35.08,32.36,7.34,4.4,8.33,4.08,12.87-2.91,4.18-6.44,8.52-12.79,12.56-19.32,2.08-3.36,4.46-4.44,8.29-3.1,3.59,1.25,3.63,3.66,3.59,6.85-.13,11.18-3.46,21.04-9.98,30.19-7.22,10.14-13.69,20.8-20.52,31.22-8.73,13.32-17.17,16.27-32.44,11.55-13.73-4.25-24.37-13.22-34.49-22.81-15.58-14.77-28.53-31.8-41.32-48.96-1.6-2.14-3.21-4.27-4.62-6.16-1.9-.14-2.18.99-2.5,1.93-4.82,14.48-11.69,27.94-20.19,40.57-2.77,4.12-2.29,5.84,2.88,6.96,56.13,12.14,109.33,32.72,161.12,57.03,97.54,45.77,191.26,98.33,280.23,159.21,6.48,4.44,12.96,8.89,20.21,12.51-6.84-7.28-13.5-14.74-20.55-21.82-57.58-57.81-115.52-115.27-172.76-173.43-30.27-30.75-60.58-61.56-86.6-96.18-8.75-11.64-16.65-23.79-22.36-37.28-6.32-14.94-6.85-29.01,3.49-42.86,8.06-10.79,15.01-22.42,22.23-33.81,6.08-9.59,14.53-12.85,25.57-11,19.46,3.27,35.63,13.3,51.22,24.5,19.76,14.2,37.86,30.41,55.69,46.92,35.63,33,69.9,67.48,106.82,99.08,34.52,29.55,71,56.18,113.39,73.61,16.4,6.74,33.34,11.63,51.3,11.65,31.52.03,55.77-13.96,74.14-38.9,5.41-7.35,10.26-15.11,15.17-22.81,2.55-4,5.71-4.59,9.47-2.29,3.86,2.35,1.27,5.27-.03,7.52-14.36,24.8-28.95,49.55-47.97,71.12-27.81,31.54-62.95,40.52-103.34,31.42-33.92-7.64-64.3-23.24-93.24-41.92-33.09-21.36-62.67-47.13-91.75-73.5-38.12-34.57-74.67-70.88-114.66-103.38-2.37-1.92-4.81-3.75-7.55-5.28,4.43,7.27,10.24,13.36,15.98,19.44,42.88,45.47,87.48,89.24,132.29,132.8,47.48,46.16,94.55,92.73,140.08,140.84,50.79,53.67,100.77,108.09,152.15,161.2,10.45,10.8,18.93,23.09,25.61,36.6,1.72,3.48,2.05,6.39-.24,9.83-8.05,12.09-16.13,24.19-23.66,36.6-3.42,5.64-7.24,5.54-12.5,3.45-26.92-10.67-52.13-24.48-76.68-39.82-66.6-41.6-130.81-86.74-196.09-130.3-69.48-46.37-141.59-88.34-215.45-127.34-44.47-23.49-89.68-45.32-136.9-62.81-1.68-.62-3.25-1.9-5.58-1.26-.08,2.95,2.13,4.79,3.52,6.89,39.59,59.94,81.11,118.55,122.35,177.36,9.18,13.09,17.94,26.46,26.91,39.69,2.34,3.45,4.23,7.11,5.81,10.98,4.2,10.27,4.44,19.51-3.15,29-7.49,9.36-13.5,19.92-19.84,30.15-2.56,4.13-5.4,4.99-9.85,3.48-7.61-2.59-13.54-7.33-17.96-13.79-13.46-19.71-26.7-39.58-40.04-59.37-4.2-6.23-4.26-6.23-8.45.14-3.31,5.03-6.84,9.94-9.72,15.21-2.72,4.98-5.95,5.69-11.2,3.98-18.25-5.94-33.98-16.26-49.56-27.04-37.94-26.25-77.07-50.56-117.93-72.03-2-1.05-4.06-1.98-6.66-3.23-.3,3.45,1.64,5.47,2.88,7.63,8.15,14.27,14.86,29.22,21.04,44.42,1.44,3.54,1.03,6.16-1.39,9.07-8.61,10.38-17.04,20.91-25.52,31.4-.74.91-1.32,1.94-2.06,3.04,2.85,1.73,5.59.96,8.18.98,19.56.13,38.99,1.44,58.07,6.05,5.88,1.42,11.6,3.32,16.79,6.49,5.14,3.15,5.97,6.09,2.29,10.68-11.81,14.74-23.82,29.32-35.89,43.85-3.16,3.8-7.86,5.3-12.41,6.82-39.03,13.05-77.37,27.74-113.63,47.43-1.8.98-3.56,2.02-5.94,3.38,2.15,1.25,3.57.23,4.92-.21,60.51-19.76,122.19-34.79,184.97-45.24,34.19-5.69,68.61-9.52,103.2-12.12,33.18-2.5,66.4-3.23,99.57-1.97,54.37,2.07,108.54,6.74,161.75,19,19.27,4.44,36.44,13.71,53.05,24.14,3.56,2.24,4.45,4.27,1.47,7.85-10.49,12.6-20.79,25.35-31.1,38.1-2.15,2.65-4.68,2.75-7.79,2.34-25.16-3.32-49.75-9.39-74.5-14.77-30.87-6.7-62.12-10.85-93.62-13.43-32.51-2.66-65.05-4.14-97.64-3.26-52.51,1.41-104.81,5.64-156.72,13.96-60.79,9.74-120.55,23.75-179.07,42.94-35.8,11.74-70.25,26.62-103.59,44.13-4.39,2.31-8.53,3.87-13.5,1.26-3.98-2.09-4.65-4.38-1.92-7.78,6.63-8.25,13.49-16.33,19.9-24.75,24.83-32.63,58.85-54.64,91.13-78.56,30.43-22.55,63.08-41.58,97.28-57.89,1.28-.61,2.52-1.32,5.4-2.84ZM322.44,262.2c-.43.37-.86.74-1.29,1.11,4.51,7.9,8.94,15.84,13.53,23.69,27.12,46.43,52.3,93.93,78.31,140.98,2,3.62,1.88,6.37-.81,9.53-6.32,7.43-12.17,15.26-18.64,22.55-3.72,4.19-3.4,5.92,1.98,7.95,42.95,16.2,85.2,34.08,126.79,53.51,25.52,11.92,49.98,25.32,70.14,45.53,4.11,4.12,4.44,7,.66,11.4-8.79,10.23-17.41,20.62-25.62,31.32-3.45,4.5-6.58,5.62-12.09,3.82-41.63-13.61-83.26-27.21-124.77-41.18-42.08-14.15-83.31-30.84-126.6-41.39-19.14-4.67-37.92-2.74-56.77.46-7.17,1.22-7.95,3.28-6.81,10.53,2.24,14.25,7.97,27,16.5,38.54,19.09,25.84,45.16,42.82,73.77,55.71,67.67,30.48,138.38,46.36,213.02,40.75,24.81-1.86,48.85-7.12,71.2-18.71,4.79-2.49,7.64-5.88,8.84-11.2,4.18-18.54,2.68-36.7-3.15-54.62-9.11-28-24.46-52.66-41.81-76.08-28.74-38.81-62-73.56-96.65-107.12-45.93-44.49-93.7-86.98-140.81-130.19-6.23-5.72-12.61-11.26-18.92-16.89ZM881.3,99.54c-2.64-1.9-5.19-1.94-7.55-2.29-32.64-4.94-65.51-7.43-98.45-9.15-10.96-.57-21.96-.99-32.85-2.27-8.79-1.04-9.48-3.69-3.98-10.45,1.22-1.5,3.81-2.92,2.57-5.12-.95-1.69-3.46-.7-5.25-.62-30.33,1.35-60.37,4.99-89.99,11.72-9.18,2.09-18.25,4.64-28.13,7.18,37.75,29.41,207.93,36.22,263.64,11Zm-71.44,251.07c.5-.24,1-.48,1.5-.72-.12-2.25-.13-4.51-.38-6.74-5.44-50.32-26.02-94.32-56.31-134.21-7.03-9.25-7.04-9-.16-18.18,4.47-5.96,10.09-11.1,14.01-18.16-23.46.35-46.04,1.21-68.58-.89-1.59-.15-3.7-.82-4.71.62-1.16,1.66.8,2.97,1.65,4.28,31.26,48.17,62.55,96.33,93.84,144.49,6.39,9.83,12.76,19.68,19.13,29.51Zm-81.88,72.37c-52.34-57.05-105.51-110.74-160.88-162.43,2.95,6.34,6.36,12.38,9.82,18.39,25.7,44.61,52.98,88.25,81.17,131.34,2.24,3.42,4.78,5.24,8.96,5.58,10.13.81,20.23,1.96,30.32,3.14,9.6,1.13,19.17,2.49,30.6,3.98Zm376.6,161.85c-.32-1.75-.27-2.22-.48-2.54-22.46-33.67-44.95-67.32-67.41-101-1.86-2.78-3.27-2.56-4.98.18-3.19,5.1-6.55,10.09-9.85,15.13-10.57,16.13-11.82,16.33-28.81,6.46-23.33-13.55-46.21-27.93-71.18-38.44-8.08-3.4-16.26-6.46-24.98-8.07,66.73,46.32,138.66,84,207.69,128.29Zm-178.93-183.37c.59-2.2-.65-3.23-1.54-4.27-18.03-21.1-36.09-42.17-54.21-63.2-.98-1.14-1.94-3.35-3.84-2.35-1.62.86-.87,3.01-.88,4.6-.17,21.19-1.44,42.23-7.78,62.65-1.46,4.72.34,5.54,4.64,4.17,13.8-4.39,27.89-6.01,42.32-4.13,7.1.92,14.22,1.7,21.28,2.53Z"/>
  <path class="cls-1" d="m1588.91,243.95c.17,2.42-.91,3.91-2.11,5.39-10.75,13.18-21.41,26.43-32.26,39.54-5.5,6.65-13.06,5.38-16.04-3.04-6.79-19.16-13.35-38.41-19.55-57.77-9.42-29.43-19.14-58.77-25.34-89.14-1.84-9.02-1.79-16.51,5.49-23.71,7.63-7.54,13.83-16.52,20.63-24.88,4.75-5.83,10.26-5.43,14.07,1.27,3.61,6.34,5.75,13.33,8.2,20.15,15.34,42.76,29.3,86.02,45.73,128.39.52,1.35.86,2.77,1.17,3.8Z"/>
  <path class="cls-1" d="m1501.75,197.08c-.08,3.3-1.7,5.95-3.69,8.38-9.57,11.72-19.12,23.46-28.8,35.1-3.78,4.55-13.71,2.4-16.37-4.16-7.96-19.64-14.18-39.83-17.25-60.89-.42-2.91.84-5.21,2.61-7.37,8.56-10.41,17.02-20.9,25.66-31.24,3.35-4,9.91-3.02,11.42,2.1,5.45,18.53,15.8,34.66,24.53,51.58,1.05,2.04,1.91,4.15,1.89,6.5Z"/>
  <path class="cls-1" d="m1462.39,832.17c-2.38-.56-5.51-.91-7.05-3.69-1.41-2.56,1.02-4.18,2.39-5.86,10.42-12.85,20.87-25.67,31.39-38.44,3.25-3.95,8.17-4.15,11.89-.81,2.91,2.62.5,4.51-.95,6.3-8.98,11.09-18.05,22.1-27.09,33.14-1.97,2.4-3.93,4.8-5.94,7.16-1.09,1.27-2.3,2.42-4.64,2.2Z"/>
</svg>